<svg id="Layer_1" data-name="Layer 1" xmlns="http://www.w3.org/2000/svg" viewBox="0 0 666.77 204.34"><defs><style>.cls-1{fill:#fff;}</style></defs><path class="cls-1" d="M484.7,8.37A138.53,138.53,0,0,0,436.33,0c-53.33,0-91,26.87-91.26,65.44-.34,28.33,26.76,44.3,47.26,53.76,21,9.74,28.07,15.87,28,24.57C420.2,157,403.53,163,388,163c-21.3,0-32.93-3-50.83-10.4l-6.63-3.1L323,193.9c13,5.4,36.33,10,60.47,10.44,56.7,0,93.76-26.7,94.2-67.74.46-22.63-14.2-39.73-45.07-53.86-18.77-9.17-30.4-15.3-30.4-24.6,0-8.24,10-17,30.8-17a98.38,98.38,0,0,1,40.4,7.6l5,2.23L486,8.07l-1.3.3ZM623.1,3.6H581.4c-13,0-22.73,3.57-28.4,16.44L472.9,201.57h56.7l11.33-29.77,69.2.07c1.64,7,6.64,29.7,6.64,29.7h50L623.1,3.57ZM268.4,1.94h54L288.6,200h-54L268.4,1.87v.07ZM131.2,111.1l5.6,27.5,52.8-135h57.23l-85,197.7H104.7L58,33.9a11.24,11.24,0,0,0-5-6.63A231.76,231.76,0,0,0,0,7.64L.73,3.47h87c11.8.47,21.3,4.17,24.47,16.77l19,91v-.14Zm425.2,20.2,21.54-55.4c-.27.6,4.43-11.43,7.16-18.86l3.7,17.1,12.5,57.13H556.4Z" transform="translate(0 0)"/></svg>