<svg id="Layer_1" data-name="Layer 1" xmlns="http://www.w3.org/2000/svg" viewBox="0 0 442.24 204.34"><defs><style>.cls-1{fill:#fff;}</style></defs><rect width="442.24" height="204.34"/><path class="cls-1" d="M384.33,49.19A78,78,0,0,0,357,44.51c-30.12,0-51.4,15.17-51.54,37-.19,16,15.11,25,26.69,30.36,11.86,5.5,15.86,9,15.82,13.88-.08,7.47-9.49,10.86-18.25,10.86-12,0-18.6-1.69-28.71-5.87l-3.75-1.79L293,154c7.36,3,20.52,5.65,34.13,5.9,32,0,53-15.09,53.21-38.26.26-12.78-8-22.44-25.43-30.43-10.6-5.2-17.17-8.64-17.17-13.9,0-4.68,5.65-9.59,17.4-9.59A55.29,55.29,0,0,1,378,72l2.82,1.29,4.28-24.23-.74.17Zm78.17-2.67H439c-7.36,0-12.83,2-16.06,9.28L377.66,158.33h32l6.4-16.82,39.09,0c.92,4,3.74,16.78,3.74,16.78h28.25Zm-200.33-1h30.5L273.58,157.43H243.07l19.08-111.9h0Zm-77.49,61.66,3.16,15.53,29.79-76.24H250L202,158.17H169.71L143.35,63.62a6.43,6.43,0,0,0-2.82-3.72,131.33,131.33,0,0,0-30-11.11l.42-2.35H160.1c6.7.26,12.05,2.35,13.83,9.47l10.7,51.4v-.08ZM424.83,118.6,437,87.34c-.15.34,2.5-6.45,4-10.65l2.1,9.66,7.06,32.27H424.81Z" transform="translate(-77.76 0)"/></svg>