<svg id="Layer_1" data-name="Layer 1" xmlns="http://www.w3.org/2000/svg" viewBox="0 0 666.77 204.34"><path d="M551.3,306.2a138.49,138.49,0,0,0-48.37-8.37c-53.33,0-91,26.87-91.26,65.44-.34,28.33,26.76,44.3,47.26,53.76,21,9.74,28.07,15.87,28,24.57-.13,13.23-16.8,19.23-32.3,19.23-21.3,0-32.93-3-50.83-10.4l-6.63-3.1-7.57,44.4c13,5.4,36.33,10,60.47,10.44,56.7,0,93.76-26.7,94.2-67.74.46-22.63-14.2-39.73-45.07-53.86-18.77-9.17-30.4-15.3-30.4-24.6,0-8.24,10-17,30.8-17A98.36,98.36,0,0,1,540,346.57l5,2.23,7.57-42.9-1.3.3Zm138.4-4.77H648c-13,0-22.73,3.57-28.4,16.44L539.5,499.4h56.7l11.33-29.77,69.2.07c1.64,7,6.64,29.7,6.64,29.7h50l-43.67-198ZM335,299.77h54L355.2,497.83h-54L335,299.7v.07ZM197.8,408.93l5.6,27.5,52.8-135h57.23l-85,197.7H171.3l-46.67-167.4a11.28,11.28,0,0,0-5-6.63A231.6,231.6,0,0,0,66.6,305.47l.73-4.17h87c11.8.47,21.3,4.17,24.47,16.77l19,91v-.1ZM623,429.13l21.54-55.4c-.27.6,4.43-11.43,7.16-18.86l3.7,17.1,12.5,57.13H623v0Z" transform="translate(-66.6 -297.83)"/></svg>